<svg version="1.1" xmlns="http://www.w3.org/2000/svg" style="display: block;" viewBox="0 0 1620 1396" width="405" height="349" preserveAspectRatio="none">
<defs>
	<linearGradient id="Gradient1" gradientUnits="userSpaceOnUse" x1="1025.11" y1="963.659" x2="1183.97" y2="911.153">
		<stop class="stop0" offset="0" stop-opacity="1" stop-color="rgb(179,143,88)"/>
		<stop class="stop1" offset="1" stop-opacity="1" stop-color="rgb(210,177,113)"/>
	</linearGradient>
	<linearGradient id="Gradient2" gradientUnits="userSpaceOnUse" x1="1107.14" y1="953.028" x2="1307.38" y2="872.283">
		<stop class="stop0" offset="0" stop-opacity="1" stop-color="rgb(171,133,80)"/>
		<stop class="stop1" offset="1" stop-opacity="1" stop-color="rgb(216,182,115)"/>
	</linearGradient>
	<linearGradient id="Gradient3" gradientUnits="userSpaceOnUse" x1="570.914" y1="1041.23" x2="726.312" y2="528.046">
		<stop class="stop0" offset="0" stop-opacity="1" stop-color="rgb(161,122,69)"/>
		<stop class="stop1" offset="1" stop-opacity="1" stop-color="rgb(203,168,110)"/>
	</linearGradient>
	<linearGradient id="Gradient4" gradientUnits="userSpaceOnUse" x1="897.053" y1="610.384" x2="1034.25" y2="295.937">
		<stop class="stop0" offset="0" stop-opacity="1" stop-color="rgb(171,135,84)"/>
		<stop class="stop1" offset="1" stop-opacity="1" stop-color="rgb(219,183,114)"/>
	</linearGradient>
	<linearGradient id="Gradient5" gradientUnits="userSpaceOnUse" x1="646.716" y1="824.421" x2="581.284" y2="228.579">
		<stop class="stop0" offset="0" stop-opacity="1" stop-color="rgb(220,224,230)"/>
		<stop class="stop1" offset="1" stop-opacity="1" stop-color="rgb(240,243,248)"/>
	</linearGradient>
	<linearGradient id="Gradient6" gradientUnits="userSpaceOnUse" x1="1187.25" y1="1027.41" x2="987.955" y2="672.29">
		<stop class="stop0" offset="0" stop-opacity="1" stop-color="rgb(195,202,212)"/>
		<stop class="stop1" offset="1" stop-opacity="1" stop-color="rgb(225,230,238)"/>
	</linearGradient>
</defs>
<path transform="translate(0,0)" fill="rgb(191,155,97)" d="M 1140.76 563.191 C 1151.1 560.67 1163.06 561.273 1173.61 560.644 C 1207.88 558.6 1258.25 562.736 1289.17 578.877 C 1302.29 581.557 1321.58 589.294 1334.99 593.387 C 1315.77 593.928 1296.53 593.379 1277.7 596.252 C 1150.92 615.598 1051.57 677.577 996.057 795.025 C 938.407 916.991 953.179 1034.05 953.929 1163.29 C 928.012 1163.32 899.881 1163.18 874.009 1163.97 C 839.08 1163.59 798.693 1163.27 764.026 1164.24 C 764.913 1068.43 772.898 955.824 803.955 864.471 C 814.074 835.353 826.558 807.11 841.281 780.026 C 892.863 683.414 975.934 605.257 1083.07 575.312 C 1102.11 569.988 1120.83 564.172 1140.76 563.191 z"/>
<path transform="translate(0,0)" fill="url(#Gradient6)" d="M 1185.13 582.246 C 1205.87 580.664 1221.94 577.293 1244.23 577.571 C 1256.29 577.722 1279.07 579.863 1289.17 578.877 C 1302.29 581.557 1321.58 589.294 1334.99 593.387 C 1315.77 593.928 1296.53 593.379 1277.7 596.252 C 1150.92 615.598 1051.57 677.577 996.057 795.025 C 938.407 916.991 953.179 1034.05 953.929 1163.29 C 928.012 1163.32 899.881 1163.18 874.009 1163.97 C 873.321 1028.65 868.848 901.129 931.614 775.951 C 974.961 689.502 1033.58 635.014 1124.59 599.233 C 1135.6 595.06 1146.75 591.614 1158.08 588.46 C 1166.6 586.088 1176.97 585.064 1185.13 582.246 z"/>
<path transform="translate(0,0)" fill="rgb(209,189,155)" d="M 1140.76 563.191 C 1151.1 560.67 1163.06 561.273 1173.61 560.644 C 1207.88 558.6 1258.25 562.736 1289.17 578.877 C 1279.07 579.863 1256.29 577.722 1244.23 577.571 C 1221.94 577.293 1205.87 580.664 1185.13 582.246 L 1184.77 581.512 C 1192.06 576.567 1244.48 576.377 1254.9 576.109 C 1255.78 565.255 1235.96 567.54 1231.57 565.257 C 1216.05 557.19 1149.77 567.085 1140.76 563.191 z"/>
<path transform="translate(0,0)" fill="url(#Gradient5)" d="M 798.178 202.896 L 799.416 204.289 C 798.92 244.855 799.576 286.391 799.696 327.044 L 799.715 512.207 C 799.705 541.555 800.183 572.527 799.353 602.016 C 799.128 609.99 776.615 623.946 769.18 628.169 C 749.195 639.521 725.555 660.288 704.988 669.254 C 705.669 589.192 705.217 509.124 703.634 429.075 C 681.405 448.022 658.935 468.635 636.936 488.042 C 601.57 519.201 565.984 550.11 530.182 580.768 C 528.184 617.515 529.765 669.845 529.781 707.75 C 530.021 735.949 527.673 760.142 528.86 788.931 C 521.92 795.341 439.362 847.941 429.844 851.718 C 430.091 831.768 429.253 809.611 429.229 789.256 L 429.147 620.412 C 429.102 603.104 427.508 539.784 430.913 526.749 C 457.582 503.808 484.064 479.511 510.511 456.25 L 711.065 280.31 C 727.697 265.785 744.04 249.596 760.708 234.898 C 773.05 224.015 783.991 211.495 798.178 202.896 z"/>
<path transform="translate(0,0)" fill="rgb(210,216,226)" d="M 870.493 689.854 L 871.028 690.251 L 871.117 691.511 C 853.63 714.99 826.104 752.092 813.155 778.821 C 794.115 818.12 782.965 818.631 748.003 841.919 C 698.447 874.927 649.93 906.226 600.369 938.98 C 577.457 954.17 552.029 968.516 530.212 985.444 C 529.314 1011 530.449 1040.19 530.888 1065.99 C 553.179 1066.47 575.476 1066.62 597.772 1066.43 C 609.03 1066.4 626.822 1065.83 637.586 1066.98 C 636.974 1057.84 637.693 1039.82 637.715 1029.74 L 638.16 945.915 C 644.621 940.165 663.603 928.52 671.485 923.315 L 735.621 880.522 C 736.842 965.213 735.759 1052.33 735.815 1137.25 L 736.057 1163.6 C 667.099 1160.91 595.898 1164.48 526.713 1163.14 C 494.442 1162.51 460.346 1162.59 428.163 1163.48 C 428.362 1127.06 428.941 1087.96 427.853 1051.73 C 412.175 1044.57 381.55 1027.14 367.23 1018.12 C 378.716 1007.99 392.511 1001.15 405.474 993.124 C 466.513 955.347 526.48 915.821 586.451 876.382 L 711.656 794.753 L 797.117 738.748 C 819.849 724.063 849.455 705.79 870.493 689.854 z"/>
<path transform="translate(0,0)" fill="url(#Gradient4)" d="M 829.551 587.398 C 831.173 551.643 830.015 507.548 830.182 471.282 L 831.871 212.118 C 831.926 208.673 831.82 207.23 833.962 205.162 L 836.13 206.493 C 851.519 223.572 883.688 253.138 901.825 268.87 C 903.963 272.025 918.342 284.651 922.367 288.546 C 947.294 312.75 972.516 336.648 998.027 360.236 C 1060.71 419.084 1116.63 472.125 1174.42 535.801 C 1125 536.921 1105.36 542.014 1058.01 556.967 C 1012.81 519.395 968.708 473.877 923.192 435.088 C 921.966 461.078 923.799 487.648 923.234 513.691 C 922.977 525.53 920.967 527.009 911.577 533.088 C 884.063 550.903 857.455 570.189 829.551 587.398 z"/>
<path transform="translate(0,0)" fill="url(#Gradient3)" d="M 876.236 589.539 C 886.064 582.426 945.463 543.055 953.217 541.829 C 962.603 543.869 970.772 553.418 978.057 559.598 C 984.467 565.035 991.752 569.961 997.389 576.09 L 997.864 577.876 C 990.404 584.562 979.24 590.742 970.441 595.899 C 951.373 607.075 933.347 619.546 914.762 631.434 C 907.643 637.407 870.06 661.078 860.543 667.398 L 721.27 758.469 L 494.359 906.79 C 451.021 934.709 415.155 959.623 369.332 985.176 C 369.28 976.603 366.829 924.2 371.709 920.551 C 388.138 908.266 409.288 895.62 426.73 884.475 C 479.323 851.489 531.467 817.793 583.149 783.398 C 590.967 778.196 634.499 752.893 635.198 746.456 C 638.127 719.495 634.035 689.151 635.833 661.957 C 609.191 662.261 581.936 661.361 555.358 662.303 C 555.719 652.585 554.584 615.642 556.472 610.701 C 567.562 606.868 658.558 609.554 677.681 608.803 C 674.712 643.898 677.828 685.256 676.859 720.827 C 683.658 717.009 690.232 712.314 696.751 707.992 C 751.932 671.413 806.221 633.177 862.396 598.157 C 866.391 595.667 872.279 591.202 876.236 589.539 z"/>
<path transform="translate(0,0)" fill="rgb(191,155,97)" d="M 876.236 589.539 C 886.064 582.426 945.463 543.055 953.217 541.829 C 962.603 543.869 970.772 553.418 978.057 559.598 C 984.467 565.035 991.752 569.961 997.389 576.09 L 997.864 577.876 C 990.404 584.562 979.24 590.742 970.441 595.899 C 951.373 607.075 933.347 619.546 914.762 631.434 L 914.194 630.807 L 914.511 629.461 C 917.983 627.02 934.583 615.027 935.509 613.006 L 934.251 611.345 L 930.402 613.015 C 926.686 608.776 934.761 594.269 920.514 587.561 L 914.873 590.739 C 907.857 590.962 900.307 586.495 894.235 586.567 C 889.526 586.623 881.988 591.846 876.236 589.539 z"/>
<path transform="translate(0,0)" fill="url(#Gradient2)" d="M 1209.51 637.066 C 1210.4 637.276 1211.61 637.489 1212.1 638.333 C 1294.56 780.34 1272.72 1012.45 1276.37 1164.1 L 1197.75 1164.02 L 1189.14 1164.6 C 1188.38 1104.35 1189.79 1043.22 1189.23 982.927 C 1188.68 924.062 1191.79 867.567 1177.96 809.678 C 1170.03 776.48 1159.12 746.416 1146.93 714.504 C 1142.38 702.599 1135.2 688.763 1131.94 676.85 L 1131.64 675.724 C 1145.74 659.5 1188.64 642.653 1209.51 637.066 z"/>
<path transform="translate(0,0)" fill="url(#Gradient1)" d="M 1105.96 692.534 C 1106.5 692.774 1108.1 693.476 1108.41 694.057 C 1182.56 835.799 1159.59 1010.27 1163.54 1164.77 C 1146.78 1163.6 1129.6 1164.04 1112.76 1164.08 C 1103.67 1164.01 1097.61 1164.1 1088.58 1164.95 C 1087.16 1098.17 1088.92 1030.55 1088.58 963.697 C 1088.26 901.463 1093.28 840.858 1069.04 781.641 C 1065.22 772.29 1058.77 756.013 1056.87 746.507 C 1060.15 735.55 1096.21 699.883 1105.96 692.534 z"/>
</svg>